# xmcd
# 
# Track frame offsets:
#     150
#     15737
#     36362
#     64925
#     86187
#     117262
#     133550
#     151712
#     171562
#     196437
# 
# Disc length: 3049
# 
# Revision: 1
# Processed by: cddbd v1.5.2PL0 Copyright (c) Steve Scherf et al.
# Submitted via: fre:ac v1.0.31
# 
DISCID=890be70a
DTITLE=Lio Yuan 劉元 - Back On The Old Road 舊路心情
DYEAR=1996
DGENRE=New Age
TTITLE0=Glory of Spring 春之華
TTITLE1=A Distant Place 遠方
TTITLE2=Wandering Heart 心在漂流
TTITLE3=Moor of Wind 風的曠野
TTITLE4=Rhapsody of Illusion 幻影狂想曲
TTITLE5=The Pilgrim 朝聖者
TTITLE6=City of Hope 希望之城
TTITLE7=Make A Wish 許願
TTITLE8=Back On The Old Road 舊路心情
TTITLE9=All is Vain 不須繁華夢裡求
EXTD=YEAR: 1996
EXTT0=
EXTT1=
EXTT2=
EXTT3=
EXTT4=
EXTT5=
EXTT6=
EXTT7=
EXTT8=
EXTT9=
PLAYORDER=
